<svg xmlns="http://www.w3.org/2000/svg" xmlns:xlink="http://www.w3.org/1999/xlink" contentStyleType="text/css" height="1832px" preserveAspectRatio="none" style="width:2333px;height:1832px;background:#FFFFFF;" version="1.1" viewBox="0 0 2333 1832" width="2333px" zoomAndPan="magnify"><defs/><g><rect fill="#FFFFFF" height="1601.5352" style="stroke:#000000;stroke-width:1.0;" width="10" x="234.5" y="130.6133"/><rect fill="#FFFFFF" height="64.5986" style="stroke:#000000;stroke-width:1.0;" width="10" x="239.5" y="168.4126"/><rect fill="#FFFFFF" height="1423.7393" style="stroke:#000000;stroke-width:1.0;" width="10" x="445.5" y="262.8105"/><rect fill="#FFFFFF" height="28" style="stroke:#000000;stroke-width:1.0;" width="10" x="450.5" y="300.6099"/><rect fill="#FFFFFF" height="1275.542" style="stroke:#000000;stroke-width:1.0;" width="10" x="656.5" y="381.2085"/><rect fill="#FFFFFF" height="1200.144" style="stroke:#000000;stroke-width:1.0;" width="10" x="867.5" y="426.8071"/><rect fill="#FFFFFF" height="1140.5454" style="stroke:#000000;stroke-width:1.0;" width="10" x="1103.5" y="456.6064"/><rect fill="#FFFFFF" height="28" style="stroke:#000000;stroke-width:1.0;" width="10" x="1108.5" y="494.4058"/><rect fill="#FFFFFF" height="842.1509" style="stroke:#000000;stroke-width:1.0;" width="10" x="1108.5" y="711.2017"/><rect fill="#FFFFFF" height="124.1973" style="stroke:#000000;stroke-width:1.0;" width="10" x="1113.5" y="1125.1621"/><rect fill="#FFFFFF" height="89.3979" style="stroke:#000000;stroke-width:1.0;" width="10" x="1424.5" y="559.2051"/><rect fill="#FFFFFF" height="89.3979" style="stroke:#000000;stroke-width:1.0;" width="10" x="1424.5" y="746.001"/><rect fill="#FFFFFF" height="89.3979" style="stroke:#000000;stroke-width:1.0;" width="10" x="1424.5" y="997.9648"/><rect fill="#FFFFFF" height="89.3979" style="stroke:#000000;stroke-width:1.0;" width="10" x="1614" y="1159.9614"/><rect fill="#FFFFFF" height="59.5986" style="stroke:#000000;stroke-width:1.0;" width="10" x="1793" y="1279.1587"/><rect fill="#FFFFFF" height="59.5986" style="stroke:#000000;stroke-width:1.0;" width="10" x="1793" y="1368.5566"/><rect fill="#FFFFFF" height="59.5986" style="stroke:#000000;stroke-width:1.0;" width="10" x="1954" y="1457.9546"/><rect fill="#FFFFFF" height="904.7495" style="stroke:#000000;stroke-width:1.0;" width="1337.5" x="990" y="663.603"/><rect fill="#FFFFFF" height="118.7666" style="stroke:#000000;stroke-width:1.0;" width="342.5" x="1000" y="850.3989"/><rect fill="#FFFFFF" height="58.168" style="stroke:none;stroke-width:1.0;" width="342.5" x="1000" y="910.9976"/><line style="stroke:#000000;stroke-width:1.0;" x1="33" x2="33" y1="83.0146" y2="1750.1484"/><line style="stroke:#000000;stroke-width:1.0;" x1="239" x2="239" y1="83.0146" y2="1750.1484"/><line style="stroke:#000000;stroke-width:1.0;" x1="450" x2="450" y1="83.0146" y2="1750.1484"/><line style="stroke:#000000;stroke-width:1.0;" x1="661.5" x2="661.5" y1="83.0146" y2="1750.1484"/><line style="stroke:#000000;stroke-width:1.0;" x1="872" x2="872" y1="83.0146" y2="1750.1484"/><line style="stroke:#000000;stroke-width:1.0;" x1="1108" x2="1108" y1="83.0146" y2="1750.1484"/><line style="stroke:#000000;stroke-width:1.0;" x1="1429.5" x2="1429.5" y1="83.0146" y2="1750.1484"/><line style="stroke:#000000;stroke-width:1.0;" x1="1618.5" x2="1618.5" y1="83.0146" y2="1750.1484"/><line style="stroke:#000000;stroke-width:1.0;" x1="1797.5" x2="1797.5" y1="83.0146" y2="1750.1484"/><line style="stroke:#000000;stroke-width:1.0;" x1="1958.5" x2="1958.5" y1="83.0146" y2="1750.1484"/><line style="stroke:#000000;stroke-width:1.0;" x1="2078.5" x2="2078.5" y1="83.0146" y2="1750.1484"/><line style="stroke:#000000;stroke-width:1.0;" x1="2137.5" x2="2137.5" y1="83.0146" y2="1750.1484"/><line style="stroke:#000000;stroke-width:1.0;" x1="2211.5" x2="2211.5" y1="83.0146" y2="1750.1484"/><line style="stroke:#000000;stroke-width:1.0;" x1="2287.5" x2="2287.5" y1="83.0146" y2="1750.1484"/><text fill="#000000" font-family="Verdana" font-size="14" lengthAdjust="spacing" textLength="41" x="10" y="80.0752">Client</text><ellipse cx="33.5" cy="14" fill="#FFFFFF" rx="8" ry="8" style="stroke:#000000;stroke-width:1.0;"/><path d="M33.5,22 L33.5,49 M20.5,30 L46.5,30 M33.5,49 L20.5,64 M33.5,49 L46.5,64 " fill="none" style="stroke:#000000;stroke-width:1.0;"/><text fill="#000000" font-family="Verdana" font-size="14" lengthAdjust="spacing" textLength="41" x="10" y="1763.2236">Client</text><ellipse cx="33.5" cy="1775.1631" fill="#FFFFFF" rx="8" ry="8" style="stroke:#000000;stroke-width:1.0;"/><path d="M33.5,1783.1631 L33.5,1810.1631 M20.5,1791.1631 L46.5,1791.1631 M33.5,1810.1631 L20.5,1825.1631 M33.5,1810.1631 L46.5,1825.1631 " fill="none" style="stroke:#000000;stroke-width:1.0;"/><rect fill="#FFFFFF" height="31.0146" rx="2.5" ry="2.5" style="stroke:#000000;stroke-width:1.0;" width="125" x="177" y="51"/><text fill="#000000" font-family="Verdana" font-size="14" lengthAdjust="spacing" textLength="111" x="184" y="72.0752">GatewayService</text><rect fill="#FFFFFF" height="31.0146" rx="2.5" ry="2.5" style="stroke:#000000;stroke-width:1.0;" width="125" x="177" y="1749.1484"/><text fill="#000000" font-family="Verdana" font-size="14" lengthAdjust="spacing" textLength="111" x="184" y="1770.2236">GatewayService</text><rect fill="#FFFFFF" height="31.0146" rx="2.5" ry="2.5" style="stroke:#000000;stroke-width:1.0;" width="117" x="392" y="51"/><text fill="#000000" font-family="Verdana" font-size="14" lengthAdjust="spacing" textLength="103" x="399" y="72.0752">IngressService</text><rect fill="#FFFFFF" height="31.0146" rx="2.5" ry="2.5" style="stroke:#000000;stroke-width:1.0;" width="117" x="392" y="1749.1484"/><text fill="#000000" font-family="Verdana" font-size="14" lengthAdjust="spacing" textLength="103" x="399" y="1770.2236">IngressService</text><rect fill="#FFFFFF" height="31.0146" rx="2.5" ry="2.5" style="stroke:#000000;stroke-width:1.0;" width="54" x="634.5" y="51"/><text fill="#000000" font-family="Verdana" font-size="14" lengthAdjust="spacing" textLength="40" x="641.5" y="72.0752">Nginx</text><rect fill="#FFFFFF" height="31.0146" rx="2.5" ry="2.5" style="stroke:#000000;stroke-width:1.0;" width="54" x="634.5" y="1749.1484"/><text fill="#000000" font-family="Verdana" font-size="14" lengthAdjust="spacing" textLength="40" x="641.5" y="1770.2236">Nginx</text><rect fill="#FFFFFF" height="31.0146" rx="2.5" ry="2.5" style="stroke:#000000;stroke-width:1.0;" width="123" x="811" y="51"/><text fill="#000000" font-family="Verdana" font-size="14" lengthAdjust="spacing" textLength="109" x="818" y="72.0752">TradeController</text><rect fill="#FFFFFF" height="31.0146" rx="2.5" ry="2.5" style="stroke:#000000;stroke-width:1.0;" width="123" x="811" y="1749.1484"/><text fill="#000000" font-family="Verdana" font-size="14" lengthAdjust="spacing" textLength="109" x="818" y="1770.2236">TradeController</text><rect fill="#FFFFFF" height="31.0146" rx="2.5" ry="2.5" style="stroke:#000000;stroke-width:1.0;" width="177" x="1020" y="51"/><text fill="#000000" font-family="Verdana" font-size="14" lengthAdjust="spacing" textLength="163" x="1027" y="72.0752">TradeCommandService</text><rect fill="#FFFFFF" height="31.0146" rx="2.5" ry="2.5" style="stroke:#000000;stroke-width:1.0;" width="177" x="1020" y="1749.1484"/><text fill="#000000" font-family="Verdana" font-size="14" lengthAdjust="spacing" textLength="163" x="1027" y="1770.2236">TradeCommandService</text><rect fill="#FFFFFF" height="31.0146" rx="2.5" ry="2.5" style="stroke:#000000;stroke-width:1.0;" width="128" x="1365.5" y="51"/><text fill="#000000" font-family="Verdana" font-size="14" lengthAdjust="spacing" textLength="114" x="1372.5" y="72.0752">TradeRepository</text><rect fill="#FFFFFF" height="31.0146" rx="2.5" ry="2.5" style="stroke:#000000;stroke-width:1.0;" width="128" x="1365.5" y="1749.1484"/><text fill="#000000" font-family="Verdana" font-size="14" lengthAdjust="spacing" textLength="114" x="1372.5" y="1770.2236">TradeRepository</text><rect fill="#FFFFFF" height="31.0146" rx="2.5" ry="2.5" style="stroke:#000000;stroke-width:1.0;" width="191" x="1523.5" y="51"/><text fill="#000000" font-family="Verdana" font-size="14" lengthAdjust="spacing" textLength="177" x="1530.5" y="72.0752">TradeAuditLogRepository</text><rect fill="#FFFFFF" height="31.0146" rx="2.5" ry="2.5" style="stroke:#000000;stroke-width:1.0;" width="191" x="1523.5" y="1749.1484"/><text fill="#000000" font-family="Verdana" font-size="14" lengthAdjust="spacing" textLength="177" x="1530.5" y="1770.2236">TradeAuditLogRepository</text><rect fill="#FFFFFF" height="31.0146" rx="2.5" ry="2.5" style="stroke:#000000;stroke-width:1.0;" width="107" x="1744.5" y="51"/><text fill="#000000" font-family="Verdana" font-size="14" lengthAdjust="spacing" textLength="93" x="1751.5" y="72.0752">CacheService</text><rect fill="#FFFFFF" height="31.0146" rx="2.5" ry="2.5" style="stroke:#000000;stroke-width:1.0;" width="107" x="1744.5" y="1749.1484"/><text fill="#000000" font-family="Verdana" font-size="14" lengthAdjust="spacing" textLength="93" x="1751.5" y="1770.2236">CacheService</text><rect fill="#FFFFFF" height="31.0146" rx="2.5" ry="2.5" style="stroke:#000000;stroke-width:1.0;" width="155" x="1881.5" y="51"/><text fill="#000000" font-family="Verdana" font-size="14" lengthAdjust="spacing" textLength="141" x="1888.5" y="72.0752">TradeEventProducer</text><rect fill="#FFFFFF" height="31.0146" rx="2.5" ry="2.5" style="stroke:#000000;stroke-width:1.0;" width="155" x="1881.5" y="1749.1484"/><text fill="#000000" font-family="Verdana" font-size="14" lengthAdjust="spacing" textLength="141" x="1888.5" y="1770.2236">TradeEventProducer</text><text fill="#000000" font-family="Verdana" font-size="14" lengthAdjust="spacing" textLength="38" x="2056.5" y="80.0752">Redis</text><path d="M2060.5,30 C2060.5,20 2078.5,20 2078.5,20 C2078.5,20 2096.5,20 2096.5,30 L2096.5,56 C2096.5,66 2078.5,66 2078.5,66 C2078.5,66 2060.5,66 2060.5,56 L2060.5,30 " fill="#FFFFFF" style="stroke:#000000;stroke-width:1.5;"/><path d="M2060.5,30 C2060.5,40 2078.5,40 2078.5,40 C2078.5,40 2096.5,40 2096.5,30 " fill="none" style="stroke:#000000;stroke-width:1.5;"/><text fill="#000000" font-family="Verdana" font-size="14" lengthAdjust="spacing" textLength="38" x="2056.5" y="1763.2236">Redis</text><path d="M2060.5,1776.1631 C2060.5,1766.1631 2078.5,1766.1631 2078.5,1766.1631 C2078.5,1766.1631 2096.5,1766.1631 2096.5,1776.1631 L2096.5,1802.1631 C2096.5,1812.1631 2078.5,1812.1631 2078.5,1812.1631 C2078.5,1812.1631 2060.5,1812.1631 2060.5,1802.1631 L2060.5,1776.1631 " fill="#FFFFFF" style="stroke:#000000;stroke-width:1.5;"/><path d="M2060.5,1776.1631 C2060.5,1786.1631 2078.5,1786.1631 2078.5,1786.1631 C2078.5,1786.1631 2096.5,1786.1631 2096.5,1776.1631 " fill="none" style="stroke:#000000;stroke-width:1.5;"/><text fill="#000000" font-family="Verdana" font-size="14" lengthAdjust="spacing" textLength="49" x="2110.5" y="80.0752">MySQL</text><path d="M2120,30 C2120,20 2138,20 2138,20 C2138,20 2156,20 2156,30 L2156,56 C2156,66 2138,66 2138,66 C2138,66 2120,66 2120,56 L2120,30 " fill="#FFFFFF" style="stroke:#000000;stroke-width:1.5;"/><path d="M2120,30 C2120,40 2138,40 2138,40 C2138,40 2156,40 2156,30 " fill="none" style="stroke:#000000;stroke-width:1.5;"/><text fill="#000000" font-family="Verdana" font-size="14" lengthAdjust="spacing" textLength="49" x="2110.5" y="1763.2236">MySQL</text><path d="M2120,1776.1631 C2120,1766.1631 2138,1766.1631 2138,1766.1631 C2138,1766.1631 2156,1766.1631 2156,1776.1631 L2156,1802.1631 C2156,1812.1631 2138,1812.1631 2138,1812.1631 C2138,1812.1631 2120,1812.1631 2120,1802.1631 L2120,1776.1631 " fill="#FFFFFF" style="stroke:#000000;stroke-width:1.5;"/><path d="M2120,1776.1631 C2120,1786.1631 2138,1786.1631 2138,1786.1631 C2138,1786.1631 2156,1786.1631 2156,1776.1631 " fill="none" style="stroke:#000000;stroke-width:1.5;"/><text fill="#000000" font-family="Verdana" font-size="14" lengthAdjust="spacing" textLength="67" x="2175.5" y="80.0752">MongoDB</text><path d="M2194,30 C2194,20 2212,20 2212,20 C2212,20 2230,20 2230,30 L2230,56 C2230,66 2212,66 2212,66 C2212,66 2194,66 2194,56 L2194,30 " fill="#FFFFFF" style="stroke:#000000;stroke-width:1.5;"/><path d="M2194,30 C2194,40 2212,40 2212,40 C2212,40 2230,40 2230,30 " fill="none" style="stroke:#000000;stroke-width:1.5;"/><text fill="#000000" font-family="Verdana" font-size="14" lengthAdjust="spacing" textLength="67" x="2175.5" y="1763.2236">MongoDB</text><path d="M2194,1776.1631 C2194,1766.1631 2212,1766.1631 2212,1766.1631 C2212,1766.1631 2230,1766.1631 2230,1776.1631 L2230,1802.1631 C2230,1812.1631 2212,1812.1631 2212,1812.1631 C2212,1812.1631 2194,1812.1631 2194,1802.1631 L2194,1776.1631 " fill="#FFFFFF" style="stroke:#000000;stroke-width:1.5;"/><path d="M2194,1776.1631 C2194,1786.1631 2212,1786.1631 2212,1786.1631 C2212,1786.1631 2230,1786.1631 2230,1776.1631 " fill="none" style="stroke:#000000;stroke-width:1.5;"/><path d="M2263.5,56 L2312.5,56 C2317.5,56 2317.5,69.5073 2317.5,69.5073 C2317.5,69.5073 2317.5,83.0146 2312.5,83.0146 L2263.5,83.0146 C2258.5,83.0146 2258.5,69.5073 2258.5,69.5073 C2258.5,69.5073 2258.5,56 2263.5,56 " fill="#FFFFFF" style="stroke:#000000;stroke-width:1.0;"/><path d="M2312.5,56 C2307.5,56 2307.5,69.5073 2307.5,69.5073 C2307.5,83.0146 2312.5,83.0146 2312.5,83.0146 " fill="none" style="stroke:#000000;stroke-width:1.0;"/><text fill="#000000" font-family="Verdana" font-size="14" lengthAdjust="spacing" textLength="39" x="2263.5" y="75.0752">Kafka</text><path d="M2263.5,1749.1484 L2312.5,1749.1484 C2317.5,1749.1484 2317.5,1762.6558 2317.5,1762.6558 C2317.5,1762.6558 2317.5,1776.1631 2312.5,1776.1631 L2263.5,1776.1631 C2258.5,1776.1631 2258.5,1762.6558 2258.5,1762.6558 C2258.5,1762.6558 2258.5,1749.1484 2263.5,1749.1484 " fill="#FFFFFF" style="stroke:#000000;stroke-width:1.0;"/><path d="M2312.5,1749.1484 C2307.5,1749.1484 2307.5,1762.6558 2307.5,1762.6558 C2307.5,1776.1631 2312.5,1776.1631 2312.5,1776.1631 " fill="none" style="stroke:#000000;stroke-width:1.0;"/><text fill="#000000" font-family="Verdana" font-size="14" lengthAdjust="spacing" textLength="39" x="2263.5" y="1768.2236">Kafka</text><rect fill="#FFFFFF" height="1601.5352" style="stroke:#000000;stroke-width:1.0;" width="10" x="234.5" y="130.6133"/><rect fill="#FFFFFF" height="64.5986" style="stroke:#000000;stroke-width:1.0;" width="10" x="239.5" y="168.4126"/><rect fill="#FFFFFF" height="1423.7393" style="stroke:#000000;stroke-width:1.0;" width="10" x="445.5" y="262.8105"/><rect fill="#FFFFFF" height="28" style="stroke:#000000;stroke-width:1.0;" width="10" x="450.5" y="300.6099"/><rect fill="#FFFFFF" height="1275.542" style="stroke:#000000;stroke-width:1.0;" width="10" x="656.5" y="381.2085"/><rect fill="#FFFFFF" height="1200.144" style="stroke:#000000;stroke-width:1.0;" width="10" x="867.5" y="426.8071"/><rect fill="#FFFFFF" height="1140.5454" style="stroke:#000000;stroke-width:1.0;" width="10" x="1103.5" y="456.6064"/><rect fill="#FFFFFF" height="28" style="stroke:#000000;stroke-width:1.0;" width="10" x="1108.5" y="494.4058"/><rect fill="#FFFFFF" height="842.1509" style="stroke:#000000;stroke-width:1.0;" width="10" x="1108.5" y="711.2017"/><rect fill="#FFFFFF" height="124.1973" style="stroke:#000000;stroke-width:1.0;" width="10" x="1113.5" y="1125.1621"/><rect fill="#FFFFFF" height="89.3979" style="stroke:#000000;stroke-width:1.0;" width="10" x="1424.5" y="559.2051"/><rect fill="#FFFFFF" height="89.3979" style="stroke:#000000;stroke-width:1.0;" width="10" x="1424.5" y="746.001"/><rect fill="#FFFFFF" height="89.3979" style="stroke:#000000;stroke-width:1.0;" width="10" x="1424.5" y="997.9648"/><rect fill="#FFFFFF" height="89.3979" style="stroke:#000000;stroke-width:1.0;" width="10" x="1614" y="1159.9614"/><rect fill="#FFFFFF" height="59.5986" style="stroke:#000000;stroke-width:1.0;" width="10" x="1793" y="1279.1587"/><rect fill="#FFFFFF" height="59.5986" style="stroke:#000000;stroke-width:1.0;" width="10" x="1793" y="1368.5566"/><rect fill="#FFFFFF" height="59.5986" style="stroke:#000000;stroke-width:1.0;" width="10" x="1954" y="1457.9546"/><polygon fill="#000000" points="222.5,126.6133,232.5,130.6133,222.5,134.6133,226.5,130.6133" style="stroke:#000000;stroke-width:1.0;"/><line style="stroke:#000000;stroke-width:2.0;" x1="33.5" x2="228.5" y1="130.6133" y2="130.6133"/><text fill="#000000" font-family="Verdana" font-size="13" lengthAdjust="spacing" textLength="114" x="77" y="110.0845">POST /api/trades</text><text fill="#000000" font-family="Verdana" font-size="13" lengthAdjust="spacing" textLength="127" x="70.5" y="125.8838">(TradeDto, source)</text><line style="stroke:#000000;stroke-width:2.0;" x1="244.5" x2="291.5" y1="155.4126" y2="155.4126"/><line style="stroke:#000000;stroke-width:2.0;" x1="291.5" x2="291.5" y1="155.4126" y2="168.4126"/><line style="stroke:#000000;stroke-width:2.0;" x1="250.5" x2="291.5" y1="168.4126" y2="168.4126"/><polygon fill="#000000" points="260.5,164.4126,250.5,168.4126,260.5,172.4126,256.5,168.4126" style="stroke:#000000;stroke-width:1.0;"/><text fill="#000000" font-family="Verdana" font-size="13" lengthAdjust="spacing" textLength="108" x="256.5" y="150.6831">Rate limit check</text><polygon fill="#000000" points="2066.5,199.2119,2076.5,203.2119,2066.5,207.2119,2070.5,203.2119" style="stroke:#000000;stroke-width:1.0;"/><line style="stroke:#000000;stroke-width:2.0;" x1="249.5" x2="2072.5" y1="203.2119" y2="203.2119"/><text fill="#000000" font-family="Verdana" font-size="13" lengthAdjust="spacing" textLength="107" x="1110.5" y="198.4824">Check rate limit</text><polygon fill="#000000" points="255.5,229.0112,245.5,233.0112,255.5,237.0112,251.5,233.0112" style="stroke:#000000;stroke-width:1.0;"/><line style="stroke:#000000;stroke-width:2.0;stroke-dasharray:2.0,2.0;" x1="249.5" x2="2077.5" y1="233.0112" y2="233.0112"/><text fill="#000000" font-family="Verdana" font-size="13" lengthAdjust="spacing" textLength="110" x="1106.5" y="228.2817">Rate limit status</text><polygon fill="#000000" points="433.5,258.8105,443.5,262.8105,433.5,266.8105,437.5,262.8105" style="stroke:#000000;stroke-width:1.0;"/><line style="stroke:#000000;stroke-width:2.0;" x1="244.5" x2="439.5" y1="262.8105" y2="262.8105"/><text fill="#000000" font-family="Verdana" font-size="13" lengthAdjust="spacing" textLength="93" x="298.5" y="258.0811">Route request</text><line style="stroke:#000000;stroke-width:2.0;" x1="460.5" x2="502.5" y1="292.6099" y2="292.6099"/><line style="stroke:#000000;stroke-width:2.0;" x1="502.5" x2="502.5" y1="292.6099" y2="305.6099"/><line style="stroke:#000000;stroke-width:2.0;" x1="461.5" x2="502.5" y1="305.6099" y2="305.6099"/><polygon fill="#000000" points="471.5,301.6099,461.5,305.6099,471.5,309.6099,467.5,305.6099" style="stroke:#000000;stroke-width:1.0;"/><text fill="#000000" font-family="Verdana" font-size="13" lengthAdjust="spacing" textLength="143" x="467.5" y="287.8804">Circuit breaker check</text><polygon fill="#000000" points="644.5,377.2085,654.5,381.2085,644.5,385.2085,648.5,381.2085" style="stroke:#000000;stroke-width:1.0;"/><line style="stroke:#000000;stroke-width:2.0;" x1="455.5" x2="650.5" y1="381.2085" y2="381.2085"/><text fill="#000000" font-family="Verdana" font-size="13" lengthAdjust="spacing" textLength="114" x="499" y="360.6797">POST /api/trades</text><text fill="#000000" font-family="Verdana" font-size="13" lengthAdjust="spacing" textLength="127" x="492.5" y="376.479">(TradeDto, source)</text><polygon fill="#000000" points="855.5,422.8071,865.5,426.8071,855.5,430.8071,859.5,426.8071" style="stroke:#000000;stroke-width:1.0;"/><line style="stroke:#000000;stroke-width:2.0;" x1="666.5" x2="861.5" y1="426.8071" y2="426.8071"/><text fill="#000000" font-family="Verdana" font-size="13" lengthAdjust="spacing" textLength="114" x="710" y="406.2783">POST /api/trades</text><text fill="#000000" font-family="Verdana" font-size="13" lengthAdjust="spacing" textLength="127" x="703.5" y="422.0776">(TradeDto, source)</text><polygon fill="#000000" points="1091.5,452.6064,1101.5,456.6064,1091.5,460.6064,1095.5,456.6064" style="stroke:#000000;stroke-width:1.0;"/><line style="stroke:#000000;stroke-width:2.0;" x1="877.5" x2="1097.5" y1="456.6064" y2="456.6064"/><text fill="#000000" font-family="Verdana" font-size="13" lengthAdjust="spacing" textLength="207" x="887" y="451.877">submitTrade(tradeDto, source)</text><line style="stroke:#000000;stroke-width:2.0;" x1="1118.5" x2="1160.5" y1="486.4058" y2="486.4058"/><line style="stroke:#000000;stroke-width:2.0;" x1="1160.5" x2="1160.5" y1="486.4058" y2="499.4058"/><line style="stroke:#000000;stroke-width:2.0;" x1="1119.5" x2="1160.5" y1="499.4058" y2="499.4058"/><polygon fill="#000000" points="1129.5,495.4058,1119.5,499.4058,1129.5,503.4058,1125.5,499.4058" style="stroke:#000000;stroke-width:1.0;"/><text fill="#000000" font-family="Verdana" font-size="13" lengthAdjust="spacing" textLength="194" x="1125.5" y="481.6763">isPastMaturity(maturityDate)</text><polygon fill="#000000" points="1412.5,555.2051,1422.5,559.2051,1412.5,563.2051,1416.5,559.2051" style="stroke:#000000;stroke-width:1.0;"/><line style="stroke:#000000;stroke-width:2.0;" x1="1113.5" x2="1418.5" y1="559.2051" y2="559.2051"/><text fill="#000000" font-family="Verdana" font-size="13" lengthAdjust="spacing" textLength="230" x="1154" y="554.4756">findMaxVersionByTradeId(tradeId)</text><polygon fill="#000000" points="2126,585.0044,2136,589.0044,2126,593.0044,2130,589.0044" style="stroke:#000000;stroke-width:1.0;"/><line style="stroke:#000000;stroke-width:2.0;" x1="1434.5" x2="2132" y1="589.0044" y2="589.0044"/><text fill="#000000" font-family="Verdana" font-size="13" lengthAdjust="spacing" textLength="144" x="1714.25" y="584.2749">SELECT MAX(version)</text><polygon fill="#000000" points="1445.5,614.8037,1435.5,618.8037,1445.5,622.8037,1441.5,618.8037" style="stroke:#000000;stroke-width:1.0;"/><line style="stroke:#000000;stroke-width:2.0;stroke-dasharray:2.0,2.0;" x1="1439.5" x2="2137" y1="618.8037" y2="618.8037"/><text fill="#000000" font-family="Verdana" font-size="13" lengthAdjust="spacing" textLength="79" x="1746.75" y="614.0742">maxVersion</text><polygon fill="#000000" points="1124.5,644.603,1114.5,648.603,1124.5,652.603,1120.5,648.603" style="stroke:#000000;stroke-width:1.0;"/><line style="stroke:#000000;stroke-width:2.0;stroke-dasharray:2.0,2.0;" x1="1118.5" x2="1428.5" y1="648.603" y2="648.603"/><text fill="#000000" font-family="Verdana" font-size="13" lengthAdjust="spacing" textLength="125" x="1209" y="643.8735">Optional&lt;Integer&gt;</text><path d="M990,663.603 L1054,663.603 L1054,671.4023 L1044,681.4023 L990,681.4023 L990,663.603 " fill="#FFFFFF" style="stroke:#000000;stroke-width:1.0;"/><rect fill="none" height="904.7495" style="stroke:#000000;stroke-width:1.0;" width="1337.5" x="990" y="663.603"/><text fill="#000000" font-family="Verdana" font-size="13" font-weight="bold" lengthAdjust="spacing" textLength="19" x="1005" y="677.6729">alt</text><text fill="#000000" font-family="Verdana" font-size="11" font-weight="bold" lengthAdjust="spacing" textLength="211" x="1069" y="676.6621">[Version is valid (new or higher)]</text><line style="stroke:#000000;stroke-width:2.0;" x1="1113.5" x2="1160.5" y1="698.2017" y2="698.2017"/><line style="stroke:#000000;stroke-width:2.0;" x1="1160.5" x2="1160.5" y1="698.2017" y2="711.2017"/><line style="stroke:#000000;stroke-width:2.0;" x1="1119.5" x2="1160.5" y1="711.2017" y2="711.2017"/><polygon fill="#000000" points="1129.5,707.2017,1119.5,711.2017,1129.5,715.2017,1125.5,711.2017" style="stroke:#000000;stroke-width:1.0;"/><text fill="#000000" font-family="Verdana" font-size="13" lengthAdjust="spacing" textLength="243" x="1125.5" y="693.4722">handleAcceptance(tradeDto, source)</text><polygon fill="#000000" points="1412.5,742.001,1422.5,746.001,1412.5,750.001,1416.5,746.001" style="stroke:#000000;stroke-width:1.0;"/><line style="stroke:#000000;stroke-width:2.0;" x1="1118.5" x2="1418.5" y1="746.001" y2="746.001"/><text fill="#000000" font-family="Verdana" font-size="13" lengthAdjust="spacing" textLength="287" x="1128" y="741.2715">findByTradeIdAndVersion(tradeId, version)</text><polygon fill="#000000" points="2126,771.8003,2136,775.8003,2126,779.8003,2130,775.8003" style="stroke:#000000;stroke-width:1.0;"/><line style="stroke:#000000;stroke-width:2.0;" x1="1434.5" x2="2132" y1="775.8003" y2="775.8003"/><text fill="#000000" font-family="Verdana" font-size="13" lengthAdjust="spacing" textLength="206" x="1683.25" y="771.0708">SELECT by tradeId and version</text><polygon fill="#000000" points="1445.5,801.5996,1435.5,805.5996,1445.5,809.5996,1441.5,805.5996" style="stroke:#000000;stroke-width:1.0;"/><line style="stroke:#000000;stroke-width:2.0;stroke-dasharray:2.0,2.0;" x1="1439.5" x2="2137" y1="805.5996" y2="805.5996"/><text fill="#000000" font-family="Verdana" font-size="13" lengthAdjust="spacing" textLength="115" x="1728.75" y="800.8701">Optional&lt;Trade&gt;</text><polygon fill="#000000" points="1129.5,831.3989,1119.5,835.3989,1129.5,839.3989,1125.5,835.3989" style="stroke:#000000;stroke-width:1.0;"/><line style="stroke:#000000;stroke-width:2.0;stroke-dasharray:2.0,2.0;" x1="1123.5" x2="1428.5" y1="835.3989" y2="835.3989"/><text fill="#000000" font-family="Verdana" font-size="13" lengthAdjust="spacing" textLength="115" x="1216.5" y="830.6694">Optional&lt;Trade&gt;</text><path d="M1000,850.3989 L1064,850.3989 L1064,858.1982 L1054,868.1982 L1000,868.1982 L1000,850.3989 " fill="#FFFFFF" style="stroke:#000000;stroke-width:1.0;"/><rect fill="none" height="118.7666" style="stroke:#000000;stroke-width:1.0;" width="342.5" x="1000" y="850.3989"/><text fill="#000000" font-family="Verdana" font-size="13" font-weight="bold" lengthAdjust="spacing" textLength="19" x="1015" y="864.4688">alt</text><text fill="#000000" font-family="Verdana" font-size="11" font-weight="bold" lengthAdjust="spacing" textLength="146" x="1079" y="863.458">[Trade exists (update)]</text><line style="stroke:#000000;stroke-width:2.0;" x1="1118.5" x2="1160.5" y1="889.9976" y2="889.9976"/><line style="stroke:#000000;stroke-width:2.0;" x1="1160.5" x2="1160.5" y1="889.9976" y2="902.9976"/><line style="stroke:#000000;stroke-width:2.0;" x1="1119.5" x2="1160.5" y1="902.9976" y2="902.9976"/><polygon fill="#000000" points="1129.5,898.9976,1119.5,902.9976,1129.5,906.9976,1125.5,902.9976" style="stroke:#000000;stroke-width:1.0;"/><text fill="#000000" font-family="Verdana" font-size="13" lengthAdjust="spacing" textLength="190" x="1125.5" y="885.2681">Update existing Trade entity</text><line style="stroke:#000000;stroke-width:1.0;stroke-dasharray:2.0,2.0;" x1="1000" x2="1342.5" y1="911.9976" y2="911.9976"/><text fill="#000000" font-family="Verdana" font-size="11" font-weight="bold" lengthAdjust="spacing" textLength="192" x="1005" y="923.0566">[Trade does not exist (create)]</text><line style="stroke:#000000;stroke-width:2.0;" x1="1118.5" x2="1160.5" y1="948.1655" y2="948.1655"/><line style="stroke:#000000;stroke-width:2.0;" x1="1160.5" x2="1160.5" y1="948.1655" y2="961.1655"/><line style="stroke:#000000;stroke-width:2.0;" x1="1119.5" x2="1160.5" y1="961.1655" y2="961.1655"/><polygon fill="#000000" points="1129.5,957.1655,1119.5,961.1655,1129.5,965.1655,1125.5,961.1655" style="stroke:#000000;stroke-width:1.0;"/><text fill="#000000" font-family="Verdana" font-size="13" lengthAdjust="spacing" textLength="162" x="1125.5" y="943.436">Create new Trade entity</text><polygon fill="#000000" points="1412.5,993.9648,1422.5,997.9648,1412.5,1001.9648,1416.5,997.9648" style="stroke:#000000;stroke-width:1.0;"/><line style="stroke:#000000;stroke-width:2.0;" x1="1118.5" x2="1418.5" y1="997.9648" y2="997.9648"/><text fill="#000000" font-family="Verdana" font-size="13" lengthAdjust="spacing" textLength="78" x="1232.5" y="993.2354">save(trade)</text><polygon fill="#000000" points="2126,1023.7642,2136,1027.7642,2126,1031.7642,2130,1027.7642" style="stroke:#000000;stroke-width:1.0;"/><line style="stroke:#000000;stroke-width:2.0;" x1="1434.5" x2="2132" y1="1027.7642" y2="1027.7642"/><text fill="#000000" font-family="Verdana" font-size="13" lengthAdjust="spacing" textLength="148" x="1712.25" y="1023.0347">INSERT/UPDATE trade</text><polygon fill="#000000" points="1445.5,1053.5635,1435.5,1057.5635,1445.5,1061.5635,1441.5,1057.5635" style="stroke:#000000;stroke-width:1.0;"/><line style="stroke:#000000;stroke-width:2.0;stroke-dasharray:2.0,2.0;" x1="1439.5" x2="2137" y1="1057.5635" y2="1057.5635"/><text fill="#000000" font-family="Verdana" font-size="13" lengthAdjust="spacing" textLength="38" x="1767.25" y="1052.834">Trade</text><polygon fill="#000000" points="1129.5,1083.3628,1119.5,1087.3628,1129.5,1091.3628,1125.5,1087.3628" style="stroke:#000000;stroke-width:1.0;"/><line style="stroke:#000000;stroke-width:2.0;stroke-dasharray:2.0,2.0;" x1="1123.5" x2="1428.5" y1="1087.3628" y2="1087.3628"/><text fill="#000000" font-family="Verdana" font-size="13" lengthAdjust="spacing" textLength="38" x="1255" y="1082.6333">Trade</text><line style="stroke:#000000;stroke-width:2.0;" x1="1118.5" x2="1165.5" y1="1112.1621" y2="1112.1621"/><line style="stroke:#000000;stroke-width:2.0;" x1="1165.5" x2="1165.5" y1="1112.1621" y2="1125.1621"/><line style="stroke:#000000;stroke-width:2.0;" x1="1124.5" x2="1165.5" y1="1125.1621" y2="1125.1621"/><polygon fill="#000000" points="1134.5,1121.1621,1124.5,1125.1621,1134.5,1129.1621,1130.5,1125.1621" style="stroke:#000000;stroke-width:1.0;"/><text fill="#000000" font-family="Verdana" font-size="13" lengthAdjust="spacing" textLength="126" x="1130.5" y="1107.4326">createAuditLog(...)</text><polygon fill="#000000" points="1602,1155.9614,1612,1159.9614,1602,1163.9614,1606,1159.9614" style="stroke:#000000;stroke-width:1.0;"/><line style="stroke:#000000;stroke-width:2.0;" x1="1123.5" x2="1608" y1="1159.9614" y2="1159.9614"/><text fill="#000000" font-family="Verdana" font-size="13" lengthAdjust="spacing" textLength="99" x="1319.25" y="1155.2319">save(auditLog)</text><polygon fill="#000000" points="2200,1185.7607,2210,1189.7607,2200,1193.7607,2204,1189.7607" style="stroke:#000000;stroke-width:1.0;"/><line style="stroke:#000000;stroke-width:2.0;" x1="1624" x2="2206" y1="1189.7607" y2="1189.7607"/><text fill="#000000" font-family="Verdana" font-size="13" lengthAdjust="spacing" textLength="112" x="1862" y="1185.0313">INSERT audit log</text><polygon fill="#000000" points="1635,1215.5601,1625,1219.5601,1635,1223.5601,1631,1219.5601" style="stroke:#000000;stroke-width:1.0;"/><line style="stroke:#000000;stroke-width:2.0;stroke-dasharray:2.0,2.0;" x1="1629" x2="2211" y1="1219.5601" y2="1219.5601"/><text fill="#000000" font-family="Verdana" font-size="13" lengthAdjust="spacing" textLength="95" x="1870.5" y="1214.8306">TradeAuditLog</text><polygon fill="#000000" points="1129.5,1245.3594,1119.5,1249.3594,1129.5,1253.3594,1125.5,1249.3594" style="stroke:#000000;stroke-width:1.0;"/><line style="stroke:#000000;stroke-width:2.0;stroke-dasharray:2.0,2.0;" x1="1123.5" x2="1618" y1="1249.3594" y2="1249.3594"/><text fill="#000000" font-family="Verdana" font-size="13" lengthAdjust="spacing" textLength="95" x="1321.25" y="1244.6299">TradeAuditLog</text><polygon fill="#000000" points="1781,1275.1587,1791,1279.1587,1781,1283.1587,1785,1279.1587" style="stroke:#000000;stroke-width:1.0;"/><line style="stroke:#000000;stroke-width:2.0;" x1="1118.5" x2="1787" y1="1279.1587" y2="1279.1587"/><text fill="#000000" font-family="Verdana" font-size="13" lengthAdjust="spacing" textLength="230" x="1340.75" y="1274.4292">setLatestTrade(tradeId, tradeMap)</text><polygon fill="#000000" points="2066.5,1304.958,2076.5,1308.958,2066.5,1312.958,2070.5,1308.958" style="stroke:#000000;stroke-width:1.0;"/><line style="stroke:#000000;stroke-width:2.0;" x1="1803" x2="2072.5" y1="1308.958" y2="1308.958"/><text fill="#000000" font-family="Verdana" font-size="13" lengthAdjust="spacing" textLength="178" x="1851.75" y="1304.2285">SET trade:latest:{tradeId}</text><polygon fill="#000000" points="1809,1334.7573,1799,1338.7573,1809,1342.7573,1805,1338.7573" style="stroke:#000000;stroke-width:1.0;"/><line style="stroke:#000000;stroke-width:2.0;stroke-dasharray:2.0,2.0;" x1="1803" x2="2077.5" y1="1338.7573" y2="1338.7573"/><text fill="#000000" font-family="Verdana" font-size="13" lengthAdjust="spacing" textLength="19" x="1928.75" y="1334.0278">OK</text><polygon fill="#000000" points="1781,1364.5566,1791,1368.5566,1781,1372.5566,1785,1368.5566" style="stroke:#000000;stroke-width:1.0;"/><line style="stroke:#000000;stroke-width:2.0;" x1="1118.5" x2="1787" y1="1368.5566" y2="1368.5566"/><text fill="#000000" font-family="Verdana" font-size="13" lengthAdjust="spacing" textLength="249" x="1331.25" y="1363.8271">setTrade(tradeId, version, tradeMap)</text><polygon fill="#000000" points="2066.5,1394.356,2076.5,1398.356,2066.5,1402.356,2070.5,1398.356" style="stroke:#000000;stroke-width:1.0;"/><line style="stroke:#000000;stroke-width:2.0;" x1="1803" x2="2072.5" y1="1398.356" y2="1398.356"/><text fill="#000000" font-family="Verdana" font-size="13" lengthAdjust="spacing" textLength="206" x="1837.75" y="1393.6265">SET trade:{tradeId}:{version}</text><polygon fill="#000000" points="1809,1424.1553,1799,1428.1553,1809,1432.1553,1805,1428.1553" style="stroke:#000000;stroke-width:1.0;"/><line style="stroke:#000000;stroke-width:2.0;stroke-dasharray:2.0,2.0;" x1="1803" x2="2077.5" y1="1428.1553" y2="1428.1553"/><text fill="#000000" font-family="Verdana" font-size="13" lengthAdjust="spacing" textLength="19" x="1928.75" y="1423.4258">OK</text><polygon fill="#000000" points="1942,1453.9546,1952,1457.9546,1942,1461.9546,1946,1457.9546" style="stroke:#000000;stroke-width:1.0;"/><line style="stroke:#000000;stroke-width:2.0;" x1="1118.5" x2="1948" y1="1457.9546" y2="1457.9546"/><text fill="#000000" font-family="Verdana" font-size="13" lengthAdjust="spacing" textLength="264" x="1404.25" y="1453.2251">sendTradeEvent(TRADE_ACCEPTED, ...)</text><polygon fill="#000000" points="2276,1483.7539,2286,1487.7539,2276,1491.7539,2280,1487.7539" style="stroke:#000000;stroke-width:1.0;"/><line style="stroke:#000000;stroke-width:2.0;" x1="1964" x2="2282" y1="1487.7539" y2="1487.7539"/><text fill="#000000" font-family="Verdana" font-size="13" lengthAdjust="spacing" textLength="207" x="2022.5" y="1483.0244">PUBLISH to trade-reports topic</text><polygon fill="#000000" points="1970,1513.5532,1960,1517.5532,1970,1521.5532,1966,1517.5532" style="stroke:#000000;stroke-width:1.0;"/><line style="stroke:#000000;stroke-width:2.0;stroke-dasharray:2.0,2.0;" x1="1964" x2="2287" y1="1517.5532" y2="1517.5532"/><text fill="#000000" font-family="Verdana" font-size="13" lengthAdjust="spacing" textLength="27" x="2110" y="1512.8237">ACK</text><line style="stroke:#000000;stroke-width:2.0;" x1="1118.5" x2="1160.5" y1="1552.3525" y2="1552.3525"/><line style="stroke:#000000;stroke-width:2.0;" x1="1160.5" x2="1160.5" y1="1552.3525" y2="1565.3525"/><line style="stroke:#000000;stroke-width:2.0;" x1="1113.5" x2="1160.5" y1="1565.3525" y2="1565.3525"/><polygon fill="#000000" points="1123.5,1561.3525,1113.5,1565.3525,1123.5,1569.3525,1119.5,1565.3525" style="stroke:#000000;stroke-width:1.0;"/><text fill="#000000" font-family="Verdana" font-size="13" lengthAdjust="spacing" textLength="215" x="1125.5" y="1547.623">Build TradeSubmissionResponse</text><polygon fill="#000000" points="888.5,1593.1519,878.5,1597.1519,888.5,1601.1519,884.5,1597.1519" style="stroke:#000000;stroke-width:1.0;"/><line style="stroke:#000000;stroke-width:2.0;stroke-dasharray:2.0,2.0;" x1="882.5" x2="1107.5" y1="1597.1519" y2="1597.1519"/><text fill="#000000" font-family="Verdana" font-size="13" lengthAdjust="spacing" textLength="177" x="904.5" y="1592.4224">TradeSubmissionResponse</text><polygon fill="#000000" points="677.5,1622.9512,667.5,1626.9512,677.5,1630.9512,673.5,1626.9512" style="stroke:#000000;stroke-width:1.0;"/><line style="stroke:#000000;stroke-width:2.0;stroke-dasharray:2.0,2.0;" x1="671.5" x2="871.5" y1="1626.9512" y2="1626.9512"/><text fill="#000000" font-family="Verdana" font-size="13" lengthAdjust="spacing" textLength="177" x="681" y="1622.2217">TradeSubmissionResponse</text><polygon fill="#000000" points="466.5,1652.7505,456.5,1656.7505,466.5,1660.7505,462.5,1656.7505" style="stroke:#000000;stroke-width:1.0;"/><line style="stroke:#000000;stroke-width:2.0;stroke-dasharray:2.0,2.0;" x1="460.5" x2="660.5" y1="1656.7505" y2="1656.7505"/><text fill="#000000" font-family="Verdana" font-size="13" lengthAdjust="spacing" textLength="177" x="470" y="1652.021">TradeSubmissionResponse</text><polygon fill="#000000" points="255.5,1682.5498,245.5,1686.5498,255.5,1690.5498,251.5,1686.5498" style="stroke:#000000;stroke-width:1.0;"/><line style="stroke:#000000;stroke-width:2.0;stroke-dasharray:2.0,2.0;" x1="249.5" x2="449.5" y1="1686.5498" y2="1686.5498"/><text fill="#000000" font-family="Verdana" font-size="13" lengthAdjust="spacing" textLength="177" x="259" y="1681.8203">TradeSubmissionResponse</text><polygon fill="#000000" points="44.5,1728.1484,34.5,1732.1484,44.5,1736.1484,40.5,1732.1484" style="stroke:#000000;stroke-width:1.0;"/><line style="stroke:#000000;stroke-width:2.0;stroke-dasharray:2.0,2.0;" x1="38.5" x2="238.5" y1="1732.1484" y2="1732.1484"/><text fill="#000000" font-family="Verdana" font-size="13" lengthAdjust="spacing" textLength="48" x="112.5" y="1711.6196">200 OK</text><text fill="#000000" font-family="Verdana" font-size="13" lengthAdjust="spacing" textLength="177" x="48" y="1727.4189">TradeSubmissionResponse</text><!--SRC=[jLTBZwCu4BxpAsgr5rhgnsYEqQebch2xKIVJsOHUpM6aaGCUOeNOh6tI7Otclwzj20z34jW7bmINwwl7LsNAFyajtcF8KaIe8tQ4PeYZFMnGj4iuosdiivHn-FbNypHs2FnNZcc45rW8b60l9Gc525E9USykZtFs5cv9jADgFtnq71H9XUkdHAauQhCa4SaGbV0RalWD7TUO7qY4Mw8PJRXIxnDzIWXzRws47CNOPrHobgRAgHxPVezet8Tcv2kSCK6KbyUkpCjZ8kSiERF7Hz4MdmKE3Yhc9MTn7Yc_OYJH1WaCAnmJKRykZki_verNHXCsVN9KFdCCp-ZR3ZbEaJwuUxIoDe7bopg41vIH1wbDYY_KDRQdajs2O3cFy8tcW1oKefrpf_tUXx_IQYdP4magr6Xt5giBPUASWA_LW5SuZbc7kyl6X4GoLrd28tnlbus2OxdIuxeqXQmTjwhBQR_t0Vc4HxboQiCnsc5kPy82RFXytPIfvx4q5atWc1yDOhN0M3YxWnnheM6YsKaJ4Fb6SML4hhoAt-f2fsVnh1qYbaZ8XQe8JkJHtPT_fWhyYfa65wEzg7j-0jy8ZHVe_K_C1M7qwMWspE8YwbbiUz4uBgntZMuwVWBhO1xu8Ioyp-wXmBrnZCZqHiU5VMM-YtakSI-PLFjH-ijCdTS9ve-TX3GyTL0geJIXKWu7b98ON8hVG9tWMv9iCRznG3rZkDkgbnHxKOGpYTGNegTGDEH5clI6guPjkYgIF1gNKPtekeKguLtRZOnK9Y_njpb22GlAgnEoqRt0PiMCaJpscxfAQqFv0h5L-ZJ1HWZudGWfmCsps3GHbCyOPb-DRW55Q792fbArfW74gIYTWPXX0PJ9OZUuaJf9_wbTt-Y2hikkIHgFhnQ13cLP_gjwc7rQ1wlmuNKvzSAWg8bhLH1McmPpNwiCONnCNWjEJXEFUtz_Fx0rBndf3b1blb4fwBFHCtLLTheoGq4nDPr808CEAKiA1WffdTG-hrg2o_OkSjE2i3aw4zcLpzGrEfjZg4elbdE599eVPdtccJyBb5aPRysmMj9SQCnnwo0i82QfGPzyBv5_6Arwgcjxy_9iHzWnE2eqAwZokFqFewl2cdmlmV_N0Bit1HqcZUjrDrnvq-2hv_l1CWocjt2cCzlNZSfaQrbRD7SADIE-Firdwzz1iYBmEwvgagkFWcGPYOo-sLcNk-Mbvp_t5c_NZz57qLDEqhWGhVMCAJGDAomoHWKUqZ7wEz0_tFMDo-SC3PmUwpcv7kY7GzPZTpdFzrn01g2LTmBxXj5pone0PjzRxBkMRW9p9Pt0nmyVL0jyeGDGhHlStm00]--></g></svg>